<svg xmlns="http://www.w3.org/2000/svg" viewBox="0 0 500 500" width="100%" height="100%">
  <defs>
    <path id="ringPath" d="M 250, 465 A 215 215 0 1 1 249.9, 465" fill="none" />
    
    <path id="bottomPath" d="M 64, 358 A 215 215 0 0 0 436, 358" fill="none" />
    
    <linearGradient id="blueGradient" x1="0%" y1="0%" x2="100%" y2="100%">
      <stop offset="0%" stop-color="#1E4B82" />
      <stop offset="100%" stop-color="#133663" />
    </linearGradient>
  </defs>

  <circle cx="250" cy="250" r="246" fill="none" stroke="#D1D5DB" stroke-width="4" />
  <circle cx="250" cy="250" r="242" fill="none" stroke="#9CA3AF" stroke-width="1.5" stroke-dasharray="4 4" />
  
  <circle cx="250" cy="250" r="215" fill="none" stroke="url(#blueGradient)" stroke-width="58" />
  
  <circle cx="250" cy="250" r="184" fill="none" stroke="#D1D5DB" stroke-width="4" />
  <circle cx="250" cy="250" r="188" fill="none" stroke="#9CA3AF" stroke-width="1.5" stroke-dasharray="6 4" />

  <text font-family="Arial, Helvetica, sans-serif" font-weight="900" font-size="24" fill="#FFFFFF" letter-spacing="3">
    <textPath href="#ringPath" startOffset="50%" text-anchor="middle">LIQUIDITY PROVIDER</textPath>
  </text>
  
  <text font-family="Arial, Helvetica, sans-serif" font-weight="bold" font-size="14" fill="#FFFFFF" letter-spacing="1.5">
    <textPath href="#ringPath" startOffset="24%" text-anchor="middle">YIELD FARMING ASSET</textPath>
  </text>
  <text font-family="Arial, Helvetica, sans-serif" font-weight="bold" font-size="14" fill="#FFFFFF" letter-spacing="1.5">
    <textPath href="#ringPath" startOffset="76%" text-anchor="middle">YIELD FARMING ASSET</textPath>
  </text>

  <text font-family="Arial, Helvetica, sans-serif" font-size="18" fill="#FFFFFF">
    <textPath href="#ringPath" startOffset="37.5%" text-anchor="middle">•</textPath>
    <textPath href="#ringPath" startOffset="62.5%" text-anchor="middle">•</textPath>
    <textPath href="#bottomPath" startOffset="7%" text-anchor="middle">•</textPath>
    <textPath href="#bottomPath" startOffset="93%" text-anchor="middle">•</textPath>
  </text>

  <text font-family="Arial, Helvetica, sans-serif" font-weight="bold" font-size="15" fill="#FFFFFF" letter-spacing="1.5">
    <textPath href="#bottomPath" startOffset="50%" text-anchor="middle">LP-CBJ TOKEN • DECENTRALIZED FINANCE</textPath>
  </text>

  <g stroke="#9CA3AF" stroke-width="1.5" fill="none" opacity="0.6">
    <circle cx="250" cy="250" r="165" stroke-dasharray="20 15 60 20 100 25" />
    <circle cx="250" cy="250" r="150" stroke-dasharray="40 20 10 30 80 40" />
    <circle cx="250" cy="250" r="135" stroke-dasharray="80 15 30 15" />
    
    <polyline points="90,140 130,140 160,170" />
    <circle cx="90" cy="140" r="2.5" fill="#9CA3AF" />
    
    <polyline points="100,120 150,120 180,150" />
    <circle cx="100" cy="120" r="2.5" fill="#9CA3AF" />

    <polyline points="410,150 370,150 340,180" />
    <circle cx="410" cy="150" r="2.5" fill="#9CA3AF" />
    
    <polyline points="390,360 350,360 320,330" />
    <circle cx="390" cy="360" r="2.5" fill="#9CA3AF" />
    
    <polyline points="110,360 150,360 180,330" />
    <circle cx="110" cy="360" r="2.5" fill="#9CA3AF" />
  </g>

  <g transform="translate(0, -10)">
    <g fill="none" stroke="#164A80" stroke-width="24" stroke-linecap="round">
      <circle cx="195" cy="220" r="60" />
      <circle cx="305" cy="220" r="60" />
    </g>

    <g fill="none" stroke="#E5E7EB" stroke-width="2.5">
      <circle cx="195" cy="220" r="60" />
      <circle cx="305" cy="220" r="60" />
    </g>

    <path d="M 250, 220 A 60 60 0 0 0 195, 280" fill="none" stroke="#164A80" stroke-width="24" />
    <path d="M 250, 220 A 60 60 0 0 0 195, 280" fill="none" stroke="#E5E7EB" stroke-width="2.5" />

    <text x="250" y="238" font-family="Arial, sans-serif" font-size="52" font-weight="900" fill="#164A80" text-anchor="middle" stroke="#FFFFFF" stroke-width="10" stroke-linejoin="round" paint-order="stroke">LP</text>
    <text x="250" y="238" font-family="Arial, sans-serif" font-size="52" font-weight="900" fill="#164A80" text-anchor="middle">LP</text>

    <text x="250" y="325" font-family="Arial, sans-serif" font-size="42" font-weight="900" fill="#164A80" text-anchor="middle" letter-spacing="4">CBJ</text>
    
    <circle cx="150" cy="220" r="4" fill="#E5E7EB" />
    <circle cx="350" cy="220" r="4" fill="#E5E7EB" />
  </g>
</svg>
